/* XPM */
static xpm_row_t crosshair_xpm[] = {
"50 50 25 1",
" 	c None",
".	c #FF0000",
"+	c #EF2B2D",
"@	c #EA3336",
"#	c #FD2020",
"$	c #FE1414",
"%	c #FE0708",
"&	c #FE1D1D",
"*	c #FD1616",
"=	c #FE0F0F",
"-	c #FE1D1E",
";	c #FD1718",
">	c #FE090A",
",	c #FE1919",
"'	c #FE0405",
")	c #FE0A0B",
"!	c #FE0607",
"~	c #FC1B1C",
"{	c #FE0707",
"]	c #FE1010",
"^	c #FE0505",
"/	c #FF0808",
"(	c #FE1C1C",
"_	c #FD0A0A",
":	c #FD2A2A",
"                                                  ",
"                        ..                        ",
"                        ..                        ",
"                        ..                        ",
"                        ..                        ",
"                        ..                        ",
"                  ....  ..  ...                   ",
"                ......  ..  ......                ",
"              ....+.    ..   .......              ",
"            ......      ..      .....             ",
"           .....        ..        ....            ",
"          ....          ..          ....          ",
"         ....           ..           ....         ",
"         ...            ..            ....        ",
"        @..          #$ .. %&..        ...        ",
"       ...         *=.  ..   -..       ....       ",
"       ...       .;     ..    .>.       ...       ",
"      ...       ,=.     ..     .'.      ....      ",
"      ...       )       ..      ...      ...      ",
"      ..      ...       ..        ..      ..      ",
"     ...      ..        ..        ..      ...     ",
"     ...      !.        ..         ~      ...     ",
"              {                    ,              ",
"                                                  ",
" .....................      ..................... ",
" .....................      ..................... ",
"                                                  ",
"              ]                    .              ",
"     ..       ^         ..         .       ..     ",
"     ...      /(        ..        ..       .      ",
"      ..      ....      ..        .       ..      ",
"      ...      ...      ..       ..      ...      ",
"      ...       ...     ..      ...      ...      ",
"      ....       ..     ..     ...      ....      ",
"       ....        ...  ..   ....       ...       ",
"        ...         ._: ..  ..         ....       ",
"        ....            ..             ...        ",
"         ....           ..           ....         ",
"          ....          ..          ....          ",
"           .....        ..         ....           ",
"            ......      ..       .....            ",
"             .......    ..    .......             ",
"               .......  ..  .......               ",
"                 .....  ..  .....                 ",
"                    ..  ..  .                     ",
"                        ..                        ",
"                        ..                        ",
"                        ..                        ",
"                        ..                        ",
"                                                  "};
