/* XPM */
static xpm_row_t greatball_xpm[] = {
"39 39 261 2",
"  	c None",
". 	c #656565",
"+ 	c #4A4A4A",
"@ 	c #434343",
"# 	c #3F3F3F",
"$ 	c #424242",
"% 	c #454545",
"& 	c #5D5D5D",
"* 	c #4D4D4D",
"= 	c #000000",
"- 	c #464646",
"; 	c #000102",
"> 	c #A0A0A0",
", 	c #7D7D7D",
"' 	c #7E7E7E",
") 	c #888888",
"! 	c #838487",
"~ 	c #3277BB",
"{ 	c #1977C1",
"] 	c #3177BB",
"^ 	c #7A7C81",
"/ 	c #878787",
"( 	c #A6A6A6",
"_ 	c #9E9E9E",
": 	c #031321",
"< 	c #1F8DE5",
"[ 	c #2196F3",
"} 	c #1F8EE6",
"| 	c #031B30",
"1 	c #9C9C9C",
"2 	c #A2A2A2",
"3 	c #989898",
"4 	c #A67D7C",
"5 	c #AD2D24",
"6 	c #923F58",
"7 	c #1965A5",
"8 	c #1466A7",
"9 	c #1467A9",
"0 	c #2D96EA",
"a 	c #309CF2",
"b 	c #2597F3",
"c 	c #2092EC",
"d 	c #1468AA",
"e 	c #913F58",
"f 	c #AB2C23",
"g 	c #9C706E",
"h 	c #5F5F5F",
"i 	c #AC2D24",
"j 	c #F44336",
"k 	c #D45E81",
"l 	c #2995F0",
"m 	c #3BA1F0",
"n 	c #3EA3F0",
"o 	c #2999F2",
"p 	c #D25F82",
"q 	c #595959",
"r 	c #D35E81",
"s 	c #5A5A5A",
"t 	c #956B69",
"u 	c #771D17",
"v 	c #B73027",
"w 	c #DB5872",
"x 	c #828BD4",
"y 	c #818DD6",
"z 	c #8290D8",
"A 	c #82B7F1",
"B 	c #82BCF4",
"C 	c #4FA5F3",
"D 	c #2E9BF2",
"E 	c #2697F1",
"F 	c #3094F0",
"G 	c #7986D2",
"H 	c #7F84D0",
"I 	c #8183CE",
"J 	c #DA5872",
"K 	c #BC3228",
"L 	c #906260",
"M 	c #F7837D",
"N 	c #F24336",
"O 	c #F44F45",
"P 	c #F4716A",
"Q 	c #F4726B",
"R 	c #F47A75",
"S 	c #FAF3F4",
"T 	c #FBFDFF",
"U 	c #FCFDFE",
"V 	c #8CBFF4",
"W 	c #379FF1",
"X 	c #4E90E8",
"Y 	c #E74C4F",
"Z 	c #F34439",
"` 	c #F44438",
" .	c #F6756D",
"..	c #F9847D",
"+.	c #F54F44",
"@.	c #F77067",
"#.	c #F77168",
"$.	c #F87C74",
"%.	c #FEF5F4",
"&.	c #FFFFFF",
"*.	c #FFFFFE",
"=.	c #8DBFF3",
"-.	c #38A0F1",
";.	c #4F90E8",
">.	c #E94B4C",
",.	c #F9756D",
"'.	c #E88182",
").	c #E64C51",
"!.	c #ED4845",
"~.	c #F54E43",
"{.	c #F76C63",
"].	c #F76D64",
"^.	c #F87A72",
"/.	c #F1EDF3",
"(.	c #F0F7FE",
"_.	c #F1F7FE",
":.	c #85BCF3",
"<.	c #349EF1",
"[.	c #E77676",
"}.	c #3E3E3E",
"|.	c #497BC2",
"1.	c #4A91E8",
"2.	c #A970A8",
"3.	c #F34336",
"4.	c #F44437",
"5.	c #F4483B",
"6.	c #F4483C",
"7.	c #ED504D",
"8.	c #75A5E6",
"9.	c #5EACF1",
"0.	c #5EADF1",
"a.	c #379CF2",
"b.	c #2698F3",
"c.	c #2296F3",
"d.	c #B471A9",
"e.	c #487BC2",
"f.	c #000103",
"g.	c #1B7CC9",
"h.	c #2096F3",
"i.	c #A173B0",
"j.	c #EB4847",
"k.	c #5F9CE4",
"l.	c #AE74B0",
"m.	c #A874B0",
"n.	c #F44537",
"o.	c #F44538",
"p.	c #E94A48",
"q.	c #2A98F1",
"r.	c #2396F1",
"s.	c #2396F2",
"t.	c #E64C4E",
"u.	c #538FE6",
"v.	c #7189D8",
"w.	c #6D89D9",
"x.	c #3497F0",
"y.	c #195E96",
"z.	c #0E4470",
"A.	c #145D97",
"B.	c #2197F4",
"C.	c #2D95F0",
"D.	c #6C89D9",
"E.	c #528FE6",
"F.	c #114774",
"G.	c #0B4777",
"H.	c #2196F4",
"I.	c #094675",
"J.	c #024676",
"K.	c #2197F5",
"L.	c #000001",
"M.	c #0D4877",
"N.	c #115891",
"O.	c #1B79C4",
"P.	c #2992EB",
"Q.	c #1A609C",
"R.	c #055790",
"S.	c #A3A7AF",
"T.	c #BEBEBE",
"U.	c #AAADB4",
"V.	c #01558F",
"W.	c #135D98",
"X.	c #1A79C5",
"Y.	c #1A64A2",
"Z.	c #1E8BE1",
"`.	c #03243F",
" +	c #DBDBDB",
".+	c #E6E6E6",
"++	c #04243F",
"@+	c #1F8BE1",
"#+	c #1568AA",
"$+	c #1965A3",
"%+	c #E5E5E5",
"&+	c #010101",
"*+	c #757575",
"=+	c #8E8E8E",
"-+	c #697FA0",
";+	c #1872BA",
">+	c #166AAD",
",+	c #021A30",
"'+	c #61799D",
")+	c #030303",
"!+	c #D3D3D3",
"~+	c #B3B3B3",
"{+	c #B2B1B1",
"]+	c #D2D2D2",
"^+	c #B1B1B1",
"/+	c #0D0D0D",
"(+	c #0B0B0B",
"_+	c #C0C0C0",
":+	c #E4E4E4",
"<+	c #AAAAAA",
"[+	c #626262",
"}+	c #C7C7C7",
"|+	c #D1D1D1",
"1+	c #606060",
"2+	c #A8A8A8",
"3+	c #C2C2C2",
"4+	c #0C0C0C",
"5+	c #ACACAC",
"6+	c #FCFCFC",
"7+	c #FBFBFB",
"8+	c #767676",
"9+	c #EFEFEF",
"0+	c #F6F6F6",
"a+	c #B0B0B0",
"b+	c #585858",
"c+	c #646464",
"d+	c #AEAEAE",
"e+	c #FEFEFE",
"f+	c #7F7F7F",
"g+	c #FDFDFD",
"h+	c #525252",
"i+	c #868686",
"j+	c #373737",
"k+	c #858585",
"l+	c #505050",
"m+	c #EBEBEB",
"n+	c #0F0F0F",
"o+	c #0E0E0E",
"p+	c #ADADAD",
"q+	c #535353",
"r+	c #9B9B9B",
"s+	c #828282",
"t+	c #F4F4F4",
"u+	c #F5F5F5",
"v+	c #898989",
"w+	c #979797",
"x+	c #252525",
"y+	c #F1F1F1",
"z+	c #F2F2F2",
"A+	c #363636",
"B+	c #353535",
"C+	c #B5B5B5",
"D+	c #B9B9B9",
"E+	c #B6B6B6",
"F+	c #6A6A6A",
"G+	c #484848",
"H+	c #949494",
"I+	c #8F8F8F",
"J+	c #8D8D8D",
"K+	c #8A8A8A",
"L+	c #909090",
"                          . + @ # # # $ + + + + % &                           ",
"                          * = = = = = = = = = = = -                           ",
"                          * ; ; ; ; ; ; ; ; ; ; ; -                           ",
"            > , , , ' ) ! ~ { { { { { { { { { { { ] ^ , ' / ) ) (             ",
"            _ = = = = = : < [ [ [ [ [ [ [ [ [ [ [ } | = = = = = 1             ",
"            2 = = = = = : < [ [ [ [ [ [ [ [ [ [ [ } | = = = = = 3             ",
"            4 5 5 6 7 8 9 0 a a b [ [ [ [ [ [ [ [ c d 8 7 e 5 f g             ",
"      h = = i j j k l [ [ m n n o [ [ [ [ [ [ [ [ [ [ [ l p j j f = = q       ",
"      h = = i j j r l [ [ m n n o [ [ [ [ [ [ [ [ [ [ [ l p j j i = = s       ",
"      t u u v j j w x y z A B B C D D E [ [ [ [ [ F G H I J j j K u u L       ",
"      M j j N j j O P Q R S T U V n n W [ [ [ [ [ X Y Z Z ` j j N j j  .      ",
"      ..j j j j j +.@.#.$.%.&.*.=.n n -.[ [ [ [ [ ;.>.j j j j j j j j ,.      ",
"      '.).).!.j j ~.{.].^./.(._.:.n n <.[ [ [ [ [ ;.>.j j j j j !.).).[.      ",
"}.@ - |.1.1.2.3.j 4.5.6.7.8.9.0.a.b.b.c.[ [ [ [ [ ;.>.j j j j j d.1.1.e.}.}.% ",
"= = f.g.[ h.i.3.j j j j j.k.n n o [ [ [ [ [ [ [ [ ;.>.j j j j j l.h.[ g.f.= = ",
"= = f.g.[ h.m.n.n.n.n.o.p.k.n n q.r.r.r.r.r.s.[ [ X t.o.n.n.n.n.l.h.[ g.f.= = ",
"= = f.g.[ [ u.v.v.v.v.v.w.x.o q.y.z.z.z.z.z.A.B.[ C.D.v.v.v.v.v.E.[ [ g.f.= = ",
"= = f.g.[ [ [ [ [ [ [ [ [ [ [ r.F.= = = = = G.B.[ [ [ [ [ [ [ [ [ [ [ g.f.= = ",
"= = f.g.H.H.[ [ [ [ [ [ [ H.H.s.I.= = = = = J.K.H.H.[ [ [ [ [ [ [ H.H.g.f.= = ",
"= = L.M.N.N.O.[ [ [ [ [ P.Q.N.R.S.T.T.T.T.T.U.V.N.W.} [ [ [ [ [ X.N.N.M.L.= = ",
"= = = = = = Y.[ [ [ [ [ Z.`.= =  +&.&.&.&.&..+= = ++@+[ [ [ [ [ #+= = = = = = ",
"= = = = = = $+[ [ [ [ [ @+++= =  +&.&.&.&.&.%+= = ++@+[ [ [ [ [ #+= = = = = = ",
"= = &+*+=+=+-+;+;+;+;+;+>+,+= =  +&.&.&.&.&.%+= = ,+>+;+;+;+;+;+'+=+=+*+&+= = ",
"= = )+!+&.&.~+= = = = = = = = =  +&.&.&.&.&.%+= = = = = = = = = {+&.&.!+)+= = ",
"= = )+]+&.&.^+= = = = = = = = =  +&.&.&.&.&.%+= = = = = = = = = ^+&.&.]+)+= = ",
"/+/+(+_+:+:+<+[+[+[+[+[+[+[+[+h }+:+:+:+:+:+|+s 1+[+[+[+[+[+[+[+2+%+:+3+4+/+/+",
"      & = = 5+6+6+6+6+6+6+6+6+7+, = = = = = 8+9+0+6+6+6+6+6+6+6+a+= = b+      ",
"      c+= = d+&.&.&.&.&.&.&.&.e+f+= = = = = , 6+g+&.&.&.&.&.&.&.a+= = h+      ",
"      . = = d+&.&.&.&.&.&.&.&.e+i+j+j+j+j+j+k+&.&.&.&.&.&.&.&.&.a+= = l+      ",
"      . = = d+&.&.&.&.&.&.&.&.&.9+m+m+m+m+m+9+&.&.&.&.&.&.&.&.&.a+= = l+      ",
"      . = = d+&.&.&.&.&.&.&.&.&.&.&.&.&.&.&.&.&.&.&.&.&.&.&.&.&.a+= = l+      ",
"      c+n+o+p+g+g+g+g+g+g+&.&.&.&.&.&.&.&.&.&.&.&.&.g+g+g+g+g+g+a+n+n+q+      ",
"            r+s+s+s+s+s+/ t+&.&.&.&.&.&.&.&.&.&.&.u+v+s+s+s+s+s+w+            ",
"            2 = = = = = x+y+&.&.&.&.&.&.&.&.&.&.&.z+A+= = = = = 3             ",
"            2 = = = = = x+y+&.&.&.&.&.&.&.&.&.&.&.z+B+= = = = = 3             ",
"                        [+C+D+D+D+D+D+D+D+D+D+D+D+E+F+                        ",
"                          + = = = = = = = = = = = G+                          ",
"                          * = = = = = = = = = = = -                           ",
"                          H+I+) k+k+k+k+J+I+I+I+K+L+                          "};
