/* XPM */
static xpm_row_t masterball_xpm[] = {
"39 39 245 2",
"  	c None",
". 	c #595959",
"+ 	c #3F3F3F",
"@ 	c #494949",
"# 	c #4A4A4A",
"$ 	c #484848",
"% 	c #525252",
"& 	c #3E3E3E",
"* 	c #000000",
"= 	c #202020",
"- 	c #010001",
"; 	c #202021",
"> 	c #878787",
", 	c #888888",
"' 	c #838383",
") 	c #7D7C7D",
"! 	c #783186",
"~ 	c #7C1E8C",
"{ 	c #792A88",
"] 	c #868586",
"^ 	c #868686",
"/ 	c #7D7D7D",
"( 	c #7E7E7E",
"_ 	c #747474",
": 	c #010101",
"< 	c #100113",
"[ 	c #8F24A1",
"} 	c #9C27B0",
"| 	c #4C4C4C",
"1 	c #787878",
"2 	c #505050",
"3 	c #785B67",
"4 	c #A5567C",
"5 	c #A5547B",
"6 	c #9A265E",
"7 	c #9A255D",
"8 	c #9A2760",
"9 	c #B45EBD",
"0 	c #BA65CA",
"a 	c #B965CA",
"b 	c #A642B9",
"c 	c #9A27A9",
"d 	c #9A2560",
"e 	c #733950",
"f 	c #181818",
"g 	c #783E5A",
"h 	c #F07FB6",
"i 	c #EF7DB4",
"j 	c #E03B8B",
"k 	c #E03A8A",
"l 	c #E03D8C",
"m 	c #DA86DC",
"n 	c #D98FE6",
"o 	c #B358C4",
"p 	c #A329AD",
"q 	c #DF3A8B",
"r 	c #841F4F",
"s 	c #999999",
"t 	c #0C0C0D",
"u 	c #978289",
"v 	c #6F3C52",
"w 	c #A15579",
"x 	c #F07DB5",
"y 	c #E44F95",
"z 	c #E44E95",
"A 	c #E45197",
"B 	c #E2A9E5",
"C 	c #E4B4ED",
"D 	c #E3B4ED",
"E 	c #C17AD0",
"F 	c #AD4FBF",
"G 	c #A53EB8",
"H 	c #A12862",
"I 	c #6C1840",
"J 	c #835A68",
"K 	c #EC86B7",
"L 	c #EC7DB3",
"M 	c #EE7EB5",
"N 	c #F07EB5",
"O 	c #F081B7",
"P 	c #FBF0F6",
"Q 	c #FEFDFF",
"R 	c #E6BDEF",
"S 	c #D88DE5",
"T 	c #BD6ACD",
"U 	c #DE3A89",
"V 	c #DD3988",
"W 	c #F088BA",
"X 	c #F083B8",
"Y 	c #FBF2FB",
"Z 	c #FFFFFF",
"` 	c #E7BFEF",
" .	c #BE6BCD",
"..	c #E188B1",
"+.	c #EE79B2",
"@.	c #E978B5",
"#.	c #E97CB7",
"$.	c #F9E9F4",
"%.	c #FCF5FD",
"&.	c #FBF5FD",
"*.	c #E3B6EB",
"=.	c #D385E0",
"-.	c #BB66CB",
";.	c #A229AD",
">.	c #D9388F",
",.	c #DA388E",
"'.	c #D95F92",
").	c #7A7A7A",
"!.	c #464646",
"~.	c #434343",
"{.	c #AE4071",
"].	c #E1428E",
"^.	c #DD4191",
"/.	c #A533B0",
"(.	c #A533B1",
"_.	c #A637B2",
":.	c #D590E1",
"<.	c #DC9BE8",
"[.	c #B865C8",
"}.	c #A134B5",
"|.	c #9F31B3",
"1.	c #D53791",
"2.	c #B03E71",
"3.	c #6C6C6C",
"4.	c #010000",
"5.	c #AA2A67",
"6.	c #DB388E",
"7.	c #9D27B0",
"8.	c #9D2BB1",
"9.	c #D183DE",
"0.	c #D43692",
"a.	c #AC2B69",
"b.	c #A92A68",
"c.	c #DF3A8A",
"d.	c #D184DF",
"e.	c #DA90E6",
"f.	c #B259C3",
"g.	c #9A27AE",
"h.	c #9B27AF",
"i.	c #D33692",
"j.	c #AB2B69",
"k.	c #7B1D78",
"l.	c #AD2BA9",
"m.	c #AC2BA9",
"n.	c #9C28B0",
"o.	c #A847BB",
"p.	c #AB4CBD",
"q.	c #AA4CBC",
"r.	c #712C7E",
"s.	c #420C4C",
"t.	c #5E156B",
"u.	c #AA2BAA",
"v.	c #842081",
"w.	c #6D6D6D",
"x.	c #6D1A7B",
"y.	c #5A1466",
"z.	c #480F52",
"A.	c #771C86",
"B.	c #797979",
"C.	c #6D1A7C",
"D.	c #9C27B1",
"E.	c #5A0F66",
"F.	c #470851",
"G.	c #771D87",
"H.	c #666666",
"I.	c #3F0C48",
"J.	c #5C1568",
"K.	c #6F1B7D",
"L.	c #641871",
"M.	c #5C1768",
"N.	c #A29BA4",
"O.	c #BEBEBE",
"P.	c #A29DA3",
"Q.	c #5C1868",
"R.	c #61176D",
"S.	c #761D85",
"T.	c #450E4E",
"U.	c #626262",
"V.	c #4C1057",
"W.	c #9B27AE",
"X.	c #310939",
"Y.	c #070807",
"Z.	c #CFCFCF",
"`.	c #D3D3D3",
" +	c #0A0B0A",
".+	c #220527",
"++	c #5E156A",
"@+	c #320939",
"#+	c #080808",
"$+	c #0B0B0B",
"%+	c #777777",
"&+	c #8E8E8E",
"*+	c #7D7080",
"=+	c #771D86",
"-+	c #751C85",
";+	c #17031B",
">+	c #7F6D84",
",+	c #646464",
"'+	c #B4B4B4",
")+	c #CBCBCB",
"!+	c #000100",
"~+	c #C3C3C3",
"{+	c #020202",
"]+	c #B2B2B2",
"^+	c #C2C2C2",
"/+	c #C1C1C1",
"(+	c #737373",
"_+	c #0D0D0D",
":+	c #0E0E0E",
"<+	c #A4A4A4",
"[+	c #E4E4E4",
"}+	c #BDBDBD",
"|+	c #636363",
"1+	c #C0C0C0",
"2+	c #B7B7B7",
"3+	c #B6B6B6",
"4+	c #111111",
"5+	c #151515",
"6+	c #FDFDFD",
"7+	c #FCFCFC",
"8+	c #939393",
"9+	c #757575",
"0+	c #969696",
"a+	c #7F7F7F",
"b+	c #FEFEFE",
"c+	c #9A9A9A",
"d+	c #9C9C9C",
"e+	c #373737",
"f+	c #F1F1F1",
"g+	c #EBEBEB",
"h+	c #EEEEEE",
"i+	c #828282",
"j+	c #0F0F0F",
"k+	c #979797",
"l+	c #282828",
"m+	c #858585",
"n+	c #EFEFEF",
"o+	c #F3F3F3",
"p+	c #212121",
"q+	c #E9E9E9",
"r+	c #242424",
"s+	c #B0B0B0",
"t+	c #B9B9B9",
"u+	c #8F8F8F",
"v+	c #8D8D8D",
"                          . + + @ # # # $ + + + + %                           ",
"                          & * * * * * * * * * * * =                           ",
"                          & - - - - - - - - - - - ;                           ",
"              > , , , ' ) ! ~ ~ ~ ~ ~ ~ ~ ~ ~ ~ ~ { ] , , ^ / (               ",
"            _ : * * * * < [ } } } } } } } } } } } [ < * * * * : |             ",
"            1 : * * * * < [ } } } } } } } } } } } [ < * * * * : 2             ",
"            3 4 4 5 6 7 8 9 0 a b } } } } } } } } c d 7 7 7 7 7 e             ",
"      f * * g h h i j k l m n n o } } } } } } } } p q k k k k k r * * s       ",
"      t * * g h h i j k l m n n o } } } } } } } } p q k k k k k r * * s       ",
"      u v v w h h x y z A B C D E F F G } } } } } p q k k k k k H I I J       ",
"      K L L M h h h N N O P Q Q R S S T } } } } } p q k k k k k U V V V       ",
"      W h h h h h h h h X Y Z Z ` n n  .} } } } } p q k k k k k k k k k       ",
"      ..+.+.+.+.+.+.@.@.#.$.%.&.*.=.=.-.} } } } } ;.>.,.,.q k k k k k '.      ",
").!.~.{.].].].].].^./.(._.:.<.<.[.}.}.|.} } } } } } ;.p p 1.k k k k k 2.!.!.1 ",
"3.* 4.5.k k k k k 6.7.} 8.9.n n o } } } } } } } } } } } 7.0.k k k k k a.- * 3.",
"3.* * b.c.c.c.c.c.6.7.} 8.d.e.n f.g.g.g.g.g.h.} } } } } 7.i.c.c.c.c.c.j.- * 3.",
"3.* * k.l.l.l.l.l.m.} } n.o.p.q.r.s.s.s.s.s.t.} } } } } } u.l.l.l.l.l.v.- * 3.",
"w.* * x.} } } } } } } } } } } } y.* * * * * z.h.} } } } } } } } } } } A.- * 3.",
"B.* * C.D.} } } } } } } } } } } E.* * * * * F.} } } } } } } } } } } } G.- * H.",
"B.* * I.J.J.K.} } } } } h.L.J.M.N.O.O.O.O.O.P.Q.J.R.h.} } } } } S.J.J.T.* * U.",
"B.* * * * * V.} } } } } W.X.* Y.Z.Z Z Z Z Z `. +* .+g.} } } } } ++* * * * * U.",
"B.* * * * * V.} } } } } W.@+* #+Z.Z Z Z Z Z `.$+* .+g.} } } } } t.* * * * * U.",
"%+* * U.&+&+*+=+=+=+=+=+-+.+* #+Z.Z Z Z Z Z `.$+* ;+-+=+=+=+=+=+>+&+&+3.: * ,+",
"3.* * '+Z Z )+!+* * * * * * * #+Z.Z Z Z Z Z `.$+* * * * * * * * ~+Z Z ~+{+* 3.",
"3.* * ]+Z Z )+: * * * * * * * #+Z.Z Z Z Z Z `.$+* * * * * * * : ^+Z Z /+: * 3.",
"(+_+:+<+[+[+}+|+U.U.U.U.U.U.U.|+1+[+[+[+[+[+^+|+U.U.U.U.U.U.U.U.2+[+[+3+4+$+1 ",
"      5+* * ( 6+7+7+7+7+7+7+7+7+8+* * * * * 9+7+7+7+7+7+7+7+7+7+8+* * 0+      ",
"      9+* * a+Z Z Z Z Z Z Z Z Z 0+* * * * * _ 7+b+Z Z Z Z Z Z Z 8+* * 2       ",
"      c+* * a+Z Z Z Z Z Z Z Z Z d+e+e+e+e+e+( b+Z Z Z Z Z Z Z Z 8+* * *       ",
"      c+* * a+Z Z Z Z Z Z Z Z Z f+g+g+g+g+g+h+Z Z Z Z Z Z Z Z Z 8+* * *       ",
"      c+* * a+Z Z Z Z Z Z Z Z Z Z Z Z Z Z Z Z Z Z Z Z Z Z Z Z Z 8+* * *       ",
"      i+j+j+a+6+6+6+6+6+6+Z Z Z Z Z Z Z Z Z Z Z Z Z 6+6+6+6+6+6+k+j+j+l+      ",
"            a+' i+i+i+i+m+n+Z Z Z Z Z Z Z Z Z Z Z o+m+i+i+i+i+i+1             ",
"            1 : * * * * p+q+Z Z Z Z Z Z Z Z Z Z Z h+r+* * * * : 2             ",
"            1 : * * * * p+q+Z Z Z Z Z Z Z Z Z Z Z h+r+* * * * : 2             ",
"                        r+s+t+t+t+t+t+t+t+t+t+t+t+s+r+                        ",
"                          & * * * * * * * * * * * =                           ",
"                          & * * * * * * * * * * * =                           ",
"                          u+m+m+&+u+u+u+v+m+m+m+m+u+                          "};
