/* XPM */
static xpm_row_t mouse_xpm[] = {
"30 44 117 2",
"  	c None",
". 	c #1E1E1E",
"+ 	c #1D1D1D",
"@ 	c #1C1C1C",
"# 	c #1B1B1B",
"$ 	c #242424",
"% 	c #6B6B6B",
"& 	c #7F7F7F",
"* 	c #363636",
"= 	c #C7C7C7",
"- 	c #EAEAEA",
"; 	c #9B9B9B",
"> 	c #3A3A3A",
", 	c #D4D4D4",
"' 	c #F9F9F9",
") 	c #B7B7B7",
"! 	c #797979",
"~ 	c #FEFEFE",
"{ 	c #F5F5F5",
"] 	c #E9E9E9",
"^ 	c #808080",
"/ 	c #000000",
"( 	c #FFFFFF",
"_ 	c #FAFAFA",
": 	c #AFAFAF",
"< 	c #888888",
"[ 	c #7C7C7C",
"} 	c #282828",
"| 	c #F4F4F4",
"1 	c #B6B6B6",
"2 	c #9C9C9C",
"3 	c #393939",
"4 	c #E3E3E3",
"5 	c #686868",
"6 	c #191919",
"7 	c #F0F0F0",
"8 	c #B0B0B0",
"9 	c #999999",
"0 	c #FDFDFD",
"a 	c #E4E4E4",
"b 	c #515151",
"c 	c #383838",
"d 	c #F3F3F3",
"e 	c #C3C3C3",
"f 	c #AAAAAA",
"g 	c #4A4A4A",
"h 	c #2A2A2A",
"i 	c #EBEBEB",
"j 	c #C0C0C0",
"k 	c #A9A9A9",
"l 	c #373737",
"m 	c #494949",
"n 	c #D1D1D1",
"o 	c #A5A5A5",
"p 	c #C1C1C1",
"q 	c #4F4F4F",
"r 	c #A0A0A0",
"s 	c #2F2F2F",
"t 	c #B5B5B5",
"u 	c #474747",
"v 	c #ECECEC",
"w 	c #DBDBDB",
"x 	c #050505",
"y 	c #353535",
"z 	c #F2F2F2",
"A 	c #ABABAB",
"B 	c #0D0D0D",
"C 	c #DFDFDF",
"D 	c #8D8D8D",
"E 	c #818181",
"F 	c #828282",
"G 	c #5B5B5B",
"H 	c #4B4B4B",
"I 	c #1F1F1F",
"J 	c #212121",
"K 	c #9D9D9D",
"L 	c #0F0F0F",
"M 	c #D6D6D6",
"N 	c #6E6E6E",
"O 	c #747474",
"P 	c #D9D9D9",
"Q 	c #DEDEDE",
"R 	c #8B8B8B",
"S 	c #767676",
"T 	c #F7F7F7",
"U 	c #939393",
"V 	c #5A5A5A",
"W 	c #5D5D5D",
"X 	c #959595",
"Y 	c #F8F8F8",
"Z 	c #FBFBFB",
"` 	c #F1F1F1",
" .	c #CBCBCB",
"..	c #DDDDDD",
"+.	c #080808",
"@.	c #0B0B0B",
"#.	c #7E7E7E",
"$.	c #D3D3D3",
"%.	c #ACACAC",
"&.	c #626262",
"*.	c #111111",
"=.	c #303030",
"-.	c #313131",
";.	c #BBBBBB",
">.	c #929292",
",.	c #777777",
"'.	c #838383",
").	c #6D6D6D",
"!.	c #A1A1A1",
"~.	c #B9B9B9",
"{.	c #292929",
"].	c #202020",
"^.	c #BABABA",
"/.	c #8C8C8C",
"(.	c #CFCFCF",
"_.	c #323232",
":.	c #333333",
"                                                            ",
"                                                            ",
"                                                            ",
"                                                            ",
"        .                                                   ",
"        +                                                   ",
"        @ # +                                               ",
"        $ % &                                               ",
"        * = - ; .                                           ",
"        > , ' ) !                                           ",
"        > , ~ { ] ^ /                                       ",
"        > , ( ( _ : <                                       ",
"        > , ( ( ( _ ] [ }                                   ",
"        > , ( ( ( ( | 1 2                                   ",
"        3 , ( ( ( ( ~ ' 4 5 6                               ",
"        3 , ( ( ( ( ( ( 7 8 9                               ",
"        3 , ( ( ( ( ( ( ( 0 a b $                           ",
"        c , ( ( ( ( ( ( ( ( d e f g                         ",
"        c , ( ( ( ( ( ( ( ( ( 0 , b h                       ",
"        c , ( ( ( ( ( ( ( ( ( ( i j k                       ",
"        l , ( ( ( ( ( ( ( ( ( ( ~ 0 , m                     ",
"        l , ( ( ( ( ( ( ( ( ( ( ( ( 7 n o }                 ",
"        l , ( ( ( ( ( ( ( ( ( ( ( ( ( ( p q                 ",
"        * , ( ( ( ( ( ( ( ( ( ( ( ( ( ( i n r s             ",
"        * , ( ( ( ( ( ( ( ( ( ( ( ( ( ( ( _ t u >           ",
"        * , ( ( ( ( ( ( ( ( ( ( ( ( ( ( ( 0 v w o x         ",
"        y , ( ( ( ( ( ( ( ( ( ( _ z z z z z z 7 A B         ",
"        y , ( ( ( ( ( ( ( ( ( ( C D E E E E F ^ G +         ",
"        y , ( ( ( ( 0 { { 0 ( ( , H + I . . . + . J         ",
"        y , ( ( ( ( z K K z ( ( , u L                       ",
"        y , ( ( ~ - M N O P - 0 Q R S                       ",
"        y , ~ ( T U V     W X Y Z `  .c                     ",
"        y , 0 v ..& +.    @.#.T ( ( $.y                     ",
"        * , ' %.&.        *.& T ( ( $.=.                    ",
"        -.;.w >.@         @ ,.w v 0 ..'.).                  ",
"        . -.3                 3 !.Y ~ 0 ~.{.                ",
"        J ].I                 # K Y ( ( ;.{.                ",
"                              + K T ~ ( ^.{.                ",
"                              . /. .(.n !.{.                ",
"                                  -.=._.:.                  ",
"                                                            ",
"                                                            ",
"                                                            ",
"                                                            "};
