/* XPM */
static xpm_row_t mouse_hand_xpm[] = {
"30 38 111 2",
"  	c None",
". 	c #252525",
"+ 	c #303030",
"@ 	c #343434",
"# 	c #373737",
"$ 	c #0E0E0E",
"% 	c #C6C6C6",
"& 	c #EFEFEF",
"* 	c #F1F1F1",
"= 	c #CBCBCB",
"- 	c #2A2A2A",
"; 	c #000000",
"> 	c #D1D1D1",
", 	c #FFFFFF",
"' 	c #D0D0D0",
") 	c #262626",
"! 	c #202020",
"~ 	c #242424",
"{ 	c #424242",
"] 	c #C0C0C0",
"^ 	c #EDEDED",
"/ 	c #B7B7B7",
"( 	c #292929",
"_ 	c #212121",
": 	c #222222",
"< 	c #474747",
"[ 	c #BFBFBF",
"} 	c #818181",
"| 	c #868686",
"1 	c #272727",
"2 	c #FAFAFA",
"3 	c #F8F8F8",
"4 	c #727272",
"5 	c #1C1C1C",
"6 	c #151515",
"7 	c #282828",
"8 	c #F6F6F6",
"9 	c #FDFDFD",
"0 	c #7E7E7E",
"a 	c #CDCDCD",
"b 	c #9F9F9F",
"c 	c #0A0A0A",
"d 	c #6E6E6E",
"e 	c #9C9C9C",
"f 	c #C4C4C4",
"g 	c #666666",
"h 	c #1E1E1E",
"i 	c #191919",
"j 	c #181818",
"k 	c #454545",
"l 	c #BEBEBE",
"m 	c #6B6B6B",
"n 	c #9B9B9B",
"o 	c #F4F4F4",
"p 	c #E2E2E2",
"q 	c #6D6D6D",
"r 	c #2D2D2D",
"s 	c #828282",
"t 	c #8E8E8E",
"u 	c #DEDEDE",
"v 	c #979797",
"w 	c #D2D2D2",
"x 	c #909090",
"y 	c #F9F9F9",
"z 	c #F5F5F5",
"A 	c #6F6F6F",
"B 	c #2B2B2B",
"C 	c #434343",
"D 	c #EAEAEA",
"E 	c #8D8D8D",
"F 	c #777777",
"G 	c #E1E1E1",
"H 	c #C7C7C7",
"I 	c #FEFEFE",
"J 	c #E0E0E0",
"K 	c #E5E5E5",
"L 	c #F7F7F7",
"M 	c #606060",
"N 	c #D5D5D5",
"O 	c #111111",
"P 	c #FCFCFC",
"Q 	c #A0A0A0",
"R 	c #E9E9E9",
"S 	c #DBDBDB",
"T 	c #DCDCDC",
"U 	c #B3B3B3",
"V 	c #2E2E2E",
"W 	c #757575",
"X 	c #F0F0F0",
"Y 	c #D4D4D4",
"Z 	c #9D9D9D",
"` 	c #717171",
" .	c #B6B6B6",
"..	c #333333",
"+.	c #D3D3D3",
"@.	c #CFCFCF",
"#.	c #BABABA",
"$.	c #575757",
"%.	c #DADADA",
"&.	c #1F1F1F",
"*.	c #646464",
"=.	c #EBEBEB",
"-.	c #D6D6D6",
";.	c #4A4A4A",
">.	c #7B7B7B",
",.	c #878787",
"'.	c #2C2C2C",
").	c #1A1A1A",
"!.	c #090909",
"~.	c #080808",
"{.	c #1B1B1B",
"                                                            ",
"                  . .                                       ",
"                + @ @ #                                     ",
"              $ % & * = -                                   ",
"              ; > , , ' )                                   ",
"              ; > , , ' )                                   ",
"              ; > , , ' )                                   ",
"              ; > , , ' )                                   ",
"              ; > , , ' )                                   ",
"              ; > , , ' ) !                                 ",
"              ; > , , ' ~ ; ; ;                             ",
"              ; > , , ' { ] ^ ^ / ( ! _ :                   ",
"              ; > , , ' < > , , [ _ } | |                   ",
"              ; > , , ' < > , , [ 1 * 2 3 4 5 6             ",
"              ; > , , ' < > , , [ 7 8 , 9 4 0 a b c         ",
"              ; > , , ' < > , , [ 7 8 , 9 d e 3 f g         ",
"  h i j i     ; > , , ' k ' , , l ~ 8 , 9 m n 3 o p q h     ",
"r - s t t     ; > , , u v u , , w x y , 9 m n 3 , z A 5     ",
"B C D , , E 1 ; > , , , , , , , , , , , 9 F e 3 , z A 5     ",
"B { D , , G H - > , , , , , , , , , , , I J K 9 , z A 5     ",
"- C p L , , ^ M N , , , , , , , , , , , , , , , , z A 5     ",
"    O 0 , , , P I , , , , , , , , , , , , , , , , z A 5     ",
"        Q R , , , , , , , , , , , , , , , , , , , z A 5     ",
"        ; S , , , , , , , , , , , , , , , , , , , z A 5     ",
"        ; T , , , , , , , , , , , , , , , , , , , z A 5     ",
"          U ' P , , , , , , , , , , , , , , , , , z A 5     ",
"          V W 3 , , , , , , , , , , , , , , , , P X A 5     ",
"          5 A 3 , , , , , , , , , , , , , , , I Y Z         ",
"          5 ` R 2 , , , , , , , , , , , , , , I  .;         ",
"              ..+., , , , , , , , , , , , , , I  .;         ",
"              ; @.I , , , , , , , , , , , , , I  .;         ",
"              ; ' I , , , , , , , , , , , , , I #.;         ",
"                $.0 ^ , , , , , , , , , , , %.d             ",
"                &.*.=., , , , , , , , , , , -.;.            ",
"                ! *.D I I I I I I I I I I I N ;.            ",
"                h # >.,.,.,.,.,.,.,.,.,.,.,.` '.            ",
"                5 ).$ !.~.~.~.~.~.~.~.~.~.~.O {.            ",
"                                                            "};
