/* XPM */
static xpm_row_t number_2_xpm[] = {
"39 39 2 1",
" 	c None",
".	c #000000",
"                                       ",
"                                       ",
"                                       ",
"              ............             ",
"          ....................         ",
"       .........................       ",
"      ...........................      ",
"     .............................     ",
"    ..........           ..........    ",
"     .....                  .......    ",
"      ...                     .....    ",
"                              ......   ",
"                               .....   ",
"                               .....   ",
"                              ......   ",
"                             .......   ",
"                            .......    ",
"                           ........    ",
"                         .........     ",
"                       .........       ",
"                      .........        ",
"                    ..........         ",
"                 ...........           ",
"               ...........             ",
"             ...........               ",
"           ...........                 ",
"        ............                   ",
"      ............                     ",
"    ...........                        ",
"    .........                          ",
"    ................................   ",
"    ................................   ",
"    ................................   ",
"    ................................   ",
"    ................................   ",
"                                       ",
"                                       ",
"                                       ",
"                                       "};
