/* XPM */
static xpm_row_t pokeball_xpm[] = {
"39 39 219 2",
"  	c None",
". 	c #595959",
"+ 	c #4A4A4A",
"@ 	c #434343",
"# 	c #3F3F3F",
"$ 	c #414141",
"% 	c #444444",
"& 	c #3E3E3E",
"* 	c #000000",
"= 	c #020000",
"- 	c #020101",
"; 	c #A3A3A3",
"> 	c #888888",
", 	c #7F7F7F",
"' 	c #7D7D7D",
") 	c #7F7574",
"! 	c #BF3B33",
"~ 	c #C6362B",
"{ 	c #C0433D",
"] 	c #878686",
"^ 	c #7E7E7E",
"/ 	c #929292",
"( 	c #390C08",
"_ 	c #EB4034",
": 	c #F44336",
"< 	c #EA4034",
"[ 	c #200605",
"} 	c #010101",
"| 	c #919191",
"1 	c #8D8D8D",
"2 	c #380C08",
"3 	c #A2A2A2",
"4 	c #9E6E6C",
"5 	c #AB2C23",
"6 	c #AD2D24",
"7 	c #B13229",
"8 	c #F1584E",
"9 	c #F55A50",
"0 	c #F55B50",
"a 	c #F4483C",
"b 	c #EE4135",
"c 	c #A57E7C",
"d 	c #B12F26",
"e 	c #F4493D",
"f 	c #F76E65",
"g 	c #F77168",
"h 	c #F54F44",
"i 	c #A82B22",
"j 	c #656565",
"k 	c #585858",
"l 	c #F77269",
"m 	c #686868",
"n 	c #505050",
"o 	c #F75C52",
"p 	c #F89C97",
"q 	c #F99F9B",
"r 	c #F9A09B",
"s 	c #F66961",
"t 	c #F44A3E",
"u 	c #707070",
"v 	c #F5574C",
"w 	c #F77067",
"x 	c #F8847D",
"y 	c #FEF4F4",
"z 	c #FFFDFD",
"A 	c #FDFCFC",
"B 	c #F79B96",
"C 	c #F5574D",
"D 	c #F8857E",
"E 	c #FEF6F6",
"F 	c #FFFFFF",
"G 	c #FDFEFE",
"H 	c #F79C97",
"I 	c #5F504F",
"J 	c #380B08",
"K 	c #B32F26",
"L 	c #F5554A",
"M 	c #F76D64",
"N 	c #F8817A",
"O 	c #FEECEB",
"P 	c #FEF1F0",
"Q 	c #FDF0F0",
"R 	c #F79691",
"S 	c #F5594F",
"T 	c #A62B22",
"U 	c #766B6A",
"V 	c #424141",
"W 	c #D03E35",
"X 	c #EF4135",
"Y 	c #F44538",
"Z 	c #F65145",
"` 	c #F77D76",
" .	c #F77A73",
"..	c #F77B73",
"+.	c #F5564C",
"@.	c #F44639",
"#.	c #EF4235",
"$.	c #C03C34",
"%.	c #454545",
"&.	c #040000",
"*.	c #DA3B30",
"=.	c #C3352B",
"-.	c #010000",
";.	c #1B1B1B",
">.	c #F24F43",
",.	c #F14235",
"'.	c #F44437",
").	c #F54E43",
"!.	c #F24E43",
"~.	c #902922",
"{.	c #6B1812",
"].	c #9B2820",
"^.	c #F64437",
"/.	c #6D1A14",
"(.	c #802019",
"_.	c #F74437",
":.	c #DA3C30",
"<.	c #F64336",
"[.	c #F54336",
"}.	c #F24236",
"|.	c #6C160E",
"1.	c #7F1C14",
"2.	c #F84437",
"3.	c #C4352B",
"4.	c #81211A",
"5.	c #95271F",
"6.	c #CC372C",
"7.	c #EB4134",
"8.	c #9B2920",
"9.	c #922118",
"0.	c #AFA6A6",
"a.	c #BEBEBE",
"b.	c #AFA4A3",
"c.	c #942118",
"d.	c #A12A22",
"e.	c #F04235",
"f.	c #C3342A",
"g.	c #751D17",
"h.	c #E63F33",
"i.	c #3F0B08",
"j.	c #DFDFDF",
"k.	c #D6D6D6",
"l.	c #58120D",
"m.	c #A62A21",
"n.	c #DEDEDE",
"o.	c #D5D5D5",
"p.	c #8E8E8E",
"q.	c #A56563",
"r.	c #BE3329",
"s.	c #2D0705",
"t.	c #3D0906",
"u.	c #B73026",
"v.	c #A06C6B",
"w.	c #6F6F6F",
"x.	c #050505",
"y.	c #ABACAC",
"z.	c #000001",
"A.	c #BBBBBB",
"B.	c #CBCBCB",
"C.	c #020202",
"D.	c #040404",
"E.	c #A9A9A9",
"F.	c #B9B9B9",
"G.	c #CACACA",
"H.	c #080808",
"I.	c #0D0D0D",
"J.	c #CDCDCD",
"K.	c #E4E4E4",
"L.	c #E5E5E5",
"M.	c #A5A5A5",
"N.	c #626262",
"O.	c #5F5F5F",
"P.	c #CCCCCC",
"Q.	c #C7C7C7",
"R.	c #5B5B5B",
"S.	c #616161",
"T.	c #B2B2B2",
"U.	c #0B0B0B",
"V.	c #212121",
"W.	c #B6B6B6",
"X.	c #FCFCFC",
"Y.	c #F9F9F9",
"Z.	c #7B7B7B",
"`.	c #EFEFEF",
" +	c #F8F8F8",
".+	c #A6A6A6",
"++	c #646464",
"@+	c #525252",
"#+	c #B8B8B8",
"$+	c #FBFBFB",
"%+	c #717171",
"&+	c #838383",
"*+	c #FDFDFD",
"=+	c #6E6E6E",
"-+	c #7A7A7A",
";+	c #373737",
">+	c #8B8B8B",
",+	c #EBEBEB",
"'+	c #F0F0F0",
")+	c #535353",
"!+	c #101010",
"~+	c #B7B7B7",
"{+	c #0F0F0F",
"]+	c #959595",
"^+	c #828282",
"/+	c #8C8C8C",
"(+	c #F5F5F5",
"_+	c #F4F4F4",
":+	c #848484",
"<+	c #999999",
"[+	c #424242",
"}+	c #F3F3F3",
"|+	c #1A1A1A",
"1+	c #B4B4B4",
"2+	c #737373",
"3+	c #353535",
"4+	c #8F8F8F",
"5+	c #858585",
"6+	c #878787",
"                          . + + + + @ # # # $ + + %                           ",
"                          & * * * * * * * * * * * *                           ",
"                          & = = = = = = = = = = = -                           ",
"            ; > > , ' ' ) ! ~ ~ ~ ~ ~ ~ ~ ~ ~ ~ ~ { ] , ' ' ' ^               ",
"            / * * * * * ( _ : : : : : : : : : : : < [ * * * * } |             ",
"            1 * * * * * 2 _ : : : : : : : : : : : < [ * * * * } 3             ",
"            4 5 6 6 6 6 7 8 9 0 a : : : : : : : : b 6 6 6 6 6 6 c             ",
"      . * * d : : : : : e f g g h : : : : : : : : : : : : : : : i * * j       ",
"      k * * d : : : : : e f g l h : : : : : : : : : : : : : : : i * * m       ",
"      n * * d : : a h h o p q r s h h t : : : : : : : : : : : : i * * u       ",
"      n * * d : : v w w x y z A B w w 9 : : : : : : : : : : : : i * * u       ",
"      n * * d : : C g g D E F G H g g 0 : : : : : : : : : : : : i * * u       ",
"      I 2 J K : : L M M N O P Q R M M S : : : : : : : : : : : : T 2 ( U       ",
"& & V W _ _ X : : Y a a Z `  ...+.a a @.: : : : : : : : : : : : #._ _ $.%.& %.",
"* * &.*.: : : : : : : : e f g g h : : : : : : : : : : : : : : : : : : =.-.* ;.",
"* * &.*.: : : : : : : : e f g l >.,.,.,.,.,.,.: : : : : : : : : : : : =.-.* ;.",
"* * &.*.: : : : : : : : '.).h !.~.{.{.{.{.{.].^.: : : : : : : : : : : =.-.* ;.",
"* * &.*.: : : : : : : : : : : ,./.* * * * * (._.: : : : : : : : : : : =.-.* ;.",
"* * &.:.<.<.[.: : : : : : <.<.}.|.* * * * * 1.2.<.<.: : : : : : [.<.<.3.-.* ;.",
"* * -.4.5.5.6.: : : : : 7.8.5.9.0.a.a.a.a.a.b.c.5.d.e.: : : : : f.5.5.g.-.* ;.",
"* * * * * * d : : : : : h.i.* * j.F F F F F k.* * l.#.: : : : : m.* * * * * ;.",
"* * * * * * d [.[.[.[.[.h.i.* * n.F F F F F o.* * l.e.[.[.[.[.[.i * * * * * ;.",
"* * } ^ p.p.q.r.r.r.r.r.d s.* * n.F F F F F o.* * t.u.r.r.r.r.r.v.p.p.w.} * ;.",
"* * x.j.F F y.* * * * * * * * * n.F F F F F o.* * * * * * * * z.A.F F B.C.* ;.",
"* * D.n.F F E.* * * * * * * * * j.F F F F F o.* * * * * * * * } F.F F G.C.* ;.",
"H.I.I.J.K.L.M.N.N.N.N.N.N.N.N.O.P.K.K.K.K.K.Q.R.S.N.N.N.N.N.N.N.T.K.K.A.U.I.V.",
"      k * * W.X.X.X.X.X.X.X.X.Y.w.* * * * * Z.`. +X.X.X.X.X.X.X..+* * ++      ",
"      @+* * #+F F F F F F F F $+%+* * * * * &+*+*+F F F F F F F E.* * =+      ",
"      n * * #+F F F F F F F F $+-+;+;+;+;+;+>+F F F F F F F F F E.* * u       ",
"      n * * #+F F F F F F F F F `.,+,+,+,+,+'+F F F F F F F F F E.* * u       ",
"      n * * #+F F F F F F F F F F F F F F F F F F F F F F F F F E.* * u       ",
"      )+!+I.~+*+*+*+*+*+*+F F F F F F F F F F F F F *+*+*+*+*+*+E.{+{+%+      ",
"            ]+^+^+^+^+^+/+(+F F F F F F F F F F F _+:+^+^+^+^+^+<+            ",
"            1 * * * * * [+}+F F F F F F F F F F F '+|+* * * * } 3             ",
"            1 * * * * * [+}+F F F F F F F F F F F '+|+* * * * } 3             ",
"                        O.1+F.F.F.F.F.F.F.F.F.F.F.~+2+                        ",
"                          & * * * * * * * * * * * 3+                          ",
"                          & * * * * * * * * * * * *                           ",
"                          | 4+4+4+p.5+5+5+5+6+4+4+]+                          "};
