/* XPM */
static xpm_row_t ultraball_xpm[] = {
"39 39 245 2",
"  	c None",
". 	c #656565",
"+ 	c #3F3F3F",
"@ 	c #494949",
"# 	c #4A4A4A",
"$ 	c #555555",
"% 	c #535353",
"& 	c #000000",
"* 	c #373737",
"= 	c #020200",
"- 	c #383837",
"; 	c #A7A7A7",
"> 	c #7E7E7E",
", 	c #878787",
"' 	c #888888",
") 	c #838384",
"! 	c #C3B63E",
"~ 	c #CBBD2E",
"{ 	c #C4B735",
"] 	c #86847A",
"^ 	c #A8A8A8",
"/ 	c #010101",
"( 	c #000001",
"_ 	c #F0DF37",
": 	c #FFEB3B",
"< 	c #F3E238",
"[ 	c #463F0C",
"} 	c #898989",
"| 	c #8D8D8D",
"1 	c #846416",
"2 	c #AF8406",
"3 	c #B08405",
"4 	c #B08D11",
"5 	c #B0A325",
"6 	c #B0A226",
"7 	c #ADA025",
"8 	c #D4C870",
"9 	c #DACD76",
"0 	c #DACD77",
"a 	c #F4E251",
"b 	c #E9D843",
"c 	c #CCBD4D",
"d 	c #CDBE4D",
"e 	c #C7B94B",
"f 	c #AB9F2B",
"g 	c #B0A326",
"h 	c #B09016",
"i 	c #A38C6A",
"j 	c #707070",
"k 	c #A17906",
"l 	c #FEC007",
"m 	c #FFC107",
"n 	c #FFCD1D",
"o 	c #FFEA3A",
"p 	c #FBE83A",
"q 	c #A9A698",
"r 	c #9E9E9E",
"s 	c #9B9CA0",
"t 	c #E5D665",
"u 	c #FFEC3B",
"v 	c #C9BC4C",
"w 	c #5B5B5E",
"x 	c #5E5E5E",
"y 	c #6C695C",
"z 	c #EEDE40",
"A 	c #B88A04",
"B 	c #3B3B3B",
"C 	c #6F6F6F",
"D 	c #5B5C5E",
"E 	c #6C6A5C",
"F 	c #7B7B7B",
"G 	c #A18110",
"H 	c #FECC1D",
"I 	c #FFD636",
"J 	c #FFEE6A",
"K 	c #FFEE6B",
"L 	c #FDED6A",
"M 	c #C4C2B6",
"N 	c #BDBDBD",
"O 	c #BCBCBE",
"P 	c #DACF7F",
"Q 	c #E9DB5F",
"R 	c #B7AD5B",
"S 	c #5C5C5E",
"T 	c #FFD627",
"U 	c #B89313",
"V 	c #404040",
"W 	c #7D7D7D",
"X 	c #A69928",
"Y 	c #FFEB3A",
"Z 	c #FFED5F",
"` 	c #FFF6B3",
" .	c #FFF7B6",
"..	c #FFF7B5",
"+.	c #FEFDF5",
"@.	c #FDFDFD",
"#.	c #FEFEFE",
"$.	c #C1C0BF",
"%.	c #A0A09C",
"&.	c #A0A09D",
"*.	c #868583",
"=.	c #B8AB28",
"-.	c #414141",
";.	c #A79A29",
">.	c #FFEE60",
",.	c #FFF7B8",
"'.	c #FFF7B7",
").	c #FFFEF7",
"!.	c #FFFFFF",
"~.	c #C2C2C2",
"{.	c #858585",
"].	c #B8AC28",
"^.	c #777777",
"/.	c #121212",
"(.	c #A89B2C",
"_.	c #FFED5D",
":.	c #FFF5AA",
"<.	c #FFF6AC",
"[.	c #FFF6AD",
"}.	c #F7F6EE",
"|.	c #F6F6F6",
"1.	c #BBBBBB",
"2.	c #989898",
"3.	c #828282",
"4.	c #B9AD2B",
"5.	c #101012",
"6.	c #474747",
"7.	c #4E4E4E",
"8.	c #464646",
"9.	c #4C4C4C",
"0.	c #595959",
"a.	c #B3A74D",
"b.	c #FFEB3F",
"c.	c #FFEC4A",
"d.	c #FFEC4B",
"e.	c #FCEA4B",
"f.	c #B2AFA1",
"g.	c #7C7C7C",
"h.	c #646464",
"i.	c #626262",
"j.	c #C4B949",
"k.	c #575859",
"l.	c #525252",
"m.	c #212121",
"n.	c #B4A850",
"o.	c #757575",
"p.	c #C5BA4C",
"q.	c #AAA798",
"r.	c #9F9F9F",
"s.	c #5D5D5D",
"t.	c #FCE93B",
"u.	c #87836B",
"v.	c #454545",
"w.	c #252525",
"x.	c #343434",
"y.	c #FCE83B",
"z.	c #7D775B",
"A.	c #333333",
"B.	c #B4A951",
"C.	c #7D785B",
"D.	c #5F5F5F",
"E.	c #313131",
"F.	c #232323",
"G.	c #6C6A5D",
"H.	c #C6BA4C",
"I.	c #5B5C5F",
"J.	c #292929",
"K.	c #353535",
"L.	c #AC9F3B",
"M.	c #FBE73A",
"N.	c #696136",
"O.	c #323232",
"P.	c #BEBEBE",
"Q.	c #ADADAD",
"R.	c #4D4935",
"S.	c #EADA38",
"T.	c #BDB138",
"U.	c #343435",
"V.	c #2E2E2E",
"W.	c #A79A28",
"X.	c #F9E537",
"Y.	c #5C4F0A",
"Z.	c #D5D5D5",
"`.	c #E7E7E7",
" +	c #383307",
".+	c #E8D835",
"++	c #FAE637",
"@+	c #5C500B",
"#+	c #393307",
"$+	c #8E8E8E",
"%+	c #9E976E",
"&+	c #C2B52C",
"*+	c #C3B52C",
"=+	c #BFB12C",
"-+	c #453F0B",
";+	c #262204",
">+	c #B0A427",
",+	c #A39B5E",
"'+	c #020202",
")+	c #C8C8C8",
"!+	c #BDBDBE",
"~+	c #A2A2A2",
"{+	c #DFDFDF",
"]+	c #050505",
"^+	c #C7C7C7",
"/+	c #BCBCBC",
"(+	c #A1A1A1",
"_+	c #DDDDDD",
":+	c #040404",
"<+	c #0D0D0D",
"[+	c #0A0A0A",
"}+	c #B9B9B9",
"|+	c #E4E4E4",
"1+	c #B2B2B2",
"2+	c #606060",
"3+	c #C4C4C4",
"4+	c #E5E5E5",
"5+	c #D2D2D2",
"6+	c #CACACA",
"7+	c #080808",
"8+	c #FCFCFC",
"9+	c #737373",
"0+	c #FBFBFB",
"a+	c #B6B6B6",
"b+	c #3A3A3A",
"c+	c #8A8A8A",
"d+	c #747474",
"e+	c #B8B8B8",
"f+	c #909090",
"g+	c #F0F0F0",
"h+	c #EBEBEB",
"i+	c #EEEEEE",
"j+	c #797979",
"k+	c #0F0F0F",
"l+	c #B7B7B7",
"m+	c #424242",
"n+	c #818181",
"o+	c #F3F3F3",
"p+	c #939393",
"q+	c #EFEFEF",
"r+	c #B4B4B4",
"s+	c #B5B5B5",
"t+	c #434343",
"u+	c #8F8F8F",
"v+	c #8C8C8C",
"                          . + + + @ # # # @ + + + $                           ",
"                          % & & & & & & & & & & & *                           ",
"                          % = = = = = = = = = = = -                           ",
"            ; > , ' ' ' ) ! ~ ~ ~ ~ ~ ~ ~ ~ ~ ~ ~ { ] ' ' ' , > ^             ",
"            > / & & & & ( _ : : : : : : : : : : : < [ & & & & & }             ",
"              / & & & & ( _ : : : : : : : : : : : < [ & & & & & |             ",
"            1 2 3 4 5 6 7 8 9 0 a : : b c d d d d e f 6 g h 3 3 i             ",
"      j & & k l m n o : p q r s t : u v w x x x x y z : o n m m A & & B       ",
"      C & & k l m n o : p q r s t : u v D x x x x E z : o n m m A & & B       ",
"      F & & G H n I J K L M N O P Q Q R S x x x x E z : : T n n U & & V       ",
"      W & & X Y o Z `  ...+.@.#.$.%.&.*.x x x x x E z : : : o o =.& & -.      ",
"      W & & ;.: : >...,.'.).!.!.~.r r {.x x x x x E z : : : : : ].& & -.      ",
"      ^././.(.: : _.:.<.[.}.|.|.1.2.2.3.x x x x x E z : : : : : 4.5./.6.      ",
"7.8.8.9.0.0.a.: : b.c.d.e.f.^ ^ g.h.. i.x x x x x E z : : : : : j.k.0.l.6.8.8.",
"m.& & @ x x n.: : : : : p q r r o.x x x x x x x x E z : : : : : p.w x l./ & & ",
"m.& & @ x x n.: : : : : p q.r r.o.s.s.s.s.s.s.x x E z : : : : : p.w x l./ & & ",
"m.& & @ x x n.: : : : : t.u.C C v.w.w.w.w.w.x.s.x E z : : : : : p.w x l./ & & ",
"m.& & @ x x n.: : : : : y.z.x x A.& & & & & w.s.x E z : : : : : p.w x l./ & & ",
"m.& & @ x x B.: : : : : y.C.x D.E.& & & & & F.s.x G.z : : : : : H.I.x l./ & & ",
"m.& & J.K.K.L.: : : : : M.N.K.O.r P.P.P.P.P.Q.E.K.R.S.: : : : : T.U.K.V.& & & ",
"m.& & & & & W.: : : : : X.Y.& & Z.!.!.!.!.!.`.& &  +.+: : : : : ].& & & & & & ",
"m.& & & & & W.: : : : : ++@+& & Z.!.!.!.!.!.`.& & #+.+: : : : u ].& & & & & & ",
"m.& / C $+$+%+&+*+*+*+*+=+-+& & Z.!.!.!.!.!.`.& & ;+>+*+*+*+*+*+,+$+$+> / & & ",
"m.& '+)+!.!.!+& & & & & & & & & Z.!.!.!.!.!.`.& & & & & & & & & ~+!.!.{+]+& & ",
"m.& / ^+!.!./+/ & & & & & & & & Z.!.!.!.!.!.`.& & & & & & & & & (+!.!._+:+& & ",
"m.<+[+}+|+|+1+i.i.i.i.i.i.i.i.2+3+4+|+|+|+|+5+D.i.i.i.i.i.i.i.i.r 4+|+6+<+<+7+",
"      C & & r 8+8+8+8+8+8+8+8+@.' & & & & & 9+0+8+8+8+8+8+8+8+8+a+& & b+      ",
"      o.& & (+#.!.!.!.!.!.!.!.!.c+& & & & & d+0+#.!.!.!.!.!.!.!.e+& & V       ",
"      W & & (+#.!.!.!.!.!.!.!.!.f+* * * * * W @.!.!.!.!.!.!.!.!.e+& & -.      ",
"      W & & (+#.!.!.!.!.!.!.!.!.g+h+h+h+h+h+i+!.!.!.!.!.!.!.!.!.e+& & -.      ",
"      W & & (+#.!.!.!.!.!.!.!.!.!.!.!.!.!.!.!.!.!.!.!.!.!.!.!.!.e+& & -.      ",
"      j+k+k+~+@.@.@.@.@.@.!.!.!.!.!.!.!.!.!.!.!.!.!.@.@.@.@.@.@.l+<+k+m+      ",
"            ^.3.3.3.3.3.n+o+!.!.!.!.!.!.!.!.!.!.!.|.f+3.3.3.3.3.p+            ",
"              / & & & & & g+!.!.!.!.!.!.!.!.!.!.!.o+6.& & & & & |             ",
"              / & & & & & q+!.!.!.!.!.!.!.!.!.!.!.o+6.& & & & & |             ",
"                          r+}+}+}+}+}+}+}+}+}+}+}+s+i.                        ",
"                          t+& & & & & & & & & & & b+                          ",
"                          % & & & & & & & & & & & *                           ",
"                          | {.{.{.$+u+u+u+$+{.{.{.v+                          "};
